<?xml version="1.0" encoding="UTF-8" standalone="no"?>
<!-- Created with Inkscape (http://www.inkscape.org/) -->

<svg
   xmlns:dc="http://purl.org/dc/elements/1.1/"
   xmlns:cc="http://creativecommons.org/ns#"
   xmlns:rdf="http://www.w3.org/1999/02/22-rdf-syntax-ns#"
   xmlns:svg="http://www.w3.org/2000/svg"
   xmlns="http://www.w3.org/2000/svg"
   xmlns:sodipodi="http://sodipodi.sourceforge.net/DTD/sodipodi-0.dtd"
   xmlns:inkscape="http://www.inkscape.org/namespaces/inkscape"
   id="svg2"
   version="1.1"
   inkscape:version="0.48.1 r9760"
   width="744.09448"
   height="1052.3622"
   xml:space="preserve"
   sodipodi:docname="SFigure9_dddL_tree.svg"><metadata
     id="metadata8"><rdf:RDF><cc:Work
         rdf:about=""><dc:format>image/svg+xml</dc:format><dc:type
           rdf:resource="http://purl.org/dc/dcmitype/StillImage" /><dc:title /></cc:Work></rdf:RDF></metadata><defs
     id="defs6" /><sodipodi:namedview
     pagecolor="#ffffff"
     bordercolor="#666666"
     borderopacity="1"
     objecttolerance="10"
     gridtolerance="10"
     guidetolerance="10"
     inkscape:pageopacity="0"
     inkscape:pageshadow="2"
     inkscape:window-width="1920"
     inkscape:window-height="1051"
     id="namedview4"
     showgrid="false"
     inkscape:document-units="mm"
     units="mm"
     inkscape:zoom="1.4142136"
     inkscape:cx="431.875"
     inkscape:cy="522.66274"
     inkscape:window-x="0"
     inkscape:window-y="0"
     inkscape:window-maximized="1"
     inkscape:current-layer="g10"><sodipodi:guide
       position="772,54"
       orientation="0,744.09448"
       id="guide3099" /><sodipodi:guide
       position="687.5,587.5"
       orientation="-1052.3622,0"
       id="guide3101" /><sodipodi:guide
       position="619,996.5"
       orientation="0,-744.09448"
       id="guide3103" /><sodipodi:guide
       position="56.5,633"
       orientation="1052.3622,0"
       id="guide3105" /></sodipodi:namedview><g
     id="g10"
     inkscape:groupmode="layer"
     inkscape:label="dddL_orgprofile_genbank_NJ1"
     transform="matrix(1.25,0,0,-1.25,0,1052.3622)"><g
       id="g12"
       transform="matrix(0.1855,0,0,0.1857,41.471418,640.6911)"><text
   transform="scale(1,-1)"
   id="text14"
   x="25.191008"
   y="104"
   style="font-size:12px"><tspan
     style="font-size:52px;font-variant:normal;font-weight:normal;writing-mode:lr-tb;fill:#000000;fill-opacity:1;fill-rule:nonzero;stroke:none;font-family:Arial;-inkscape-font-specification:Arial"
     x="1450.6035 1488.1481 1517.0605 1543.0609 1571.9731 1600.8857 1629.7982 1658.7104 1684.7108 1699.1671 1728.0793 1745.3958 1756.5186 1782.5189 1811.4314 1825.8877 1837.0104 1877.467 1912.1514 1926.6075 1955.5201 1984.4324"
     sodipodi:role="line"
     id="tspan16"><tspan
   style="font-style:italic"
   id="tspan3199">Roseobacter</tspan> sp. GAI101</tspan></text>


<path
   d="m 1272,-135 0,46 167,0"
   style="fill:none;stroke:#000000;stroke-width:4;stroke-linecap:square;stroke-linejoin:miter;stroke-miterlimit:10;stroke-opacity:1;stroke-dasharray:none"
   id="path18"
   inkscape:connector-curvature="0" /><text
   transform="scale(1,-1)"
   id="text20"
   x="493.58157"
   y="200"
   style="font-size:12px"><tspan
     style="font-size:52px;font-variant:normal;font-weight:bold;writing-mode:lr-tb;fill:#000000;fill-opacity:1;fill-rule:nonzero;stroke:none;font-family:Arial;-inkscape-font-specification:Arial"
     x="1512.3602 1547.0448 1575.9572 1587.5012 1601.9575 1613.5016 1627.9579 1656.8704 1685.7827 1714.6952 1740.6956 1755.1519 1784.0641 1801.3802 1814.6365 1840.6368 1869.5494 1884.0054 1897.2617 1931.9463 1966.6306 1983.947 2012.8593"
     sodipodi:role="line"
     id="tspan22"><tspan
   style="font-style:italic;font-weight:bold"
   id="tspan3201">Sulfitobacter</tspan> sp. EE-36</tspan></text>


<path
   d="m 1272,-139 0,-46 230,0"
   style="fill:none;stroke:#000000;stroke-width:4;stroke-linecap:square;stroke-linejoin:miter;stroke-miterlimit:10;stroke-opacity:1;stroke-dasharray:none"
   id="path24"
   inkscape:connector-curvature="0" /><path
   d="m 853,-207 0,70 419,0"
   style="fill:none;stroke:#000000;stroke-width:4;stroke-linecap:square;stroke-linejoin:miter;stroke-miterlimit:10;stroke-opacity:1;stroke-dasharray:none"
   id="path26"
   inkscape:connector-curvature="0" /><text
   transform="scale(1,-1)"
   id="text28"
   x="-21.811777"
   y="296"
   style="font-size:12px"><tspan
     style="font-size:52px;font-variant:normal;font-weight:normal;writing-mode:lr-tb;fill:#000000;fill-opacity:1;fill-rule:nonzero;stroke:none;font-family:Arial;-inkscape-font-specification:Arial"
     x="1465.4734 1494.3859 1523.2982 1549.2986 1563.7548 1592.6674 1621.5796 1650.4921 1662.0363 1673.5803 1702.4928 1715.0919 1741.1443 1770.0565 1796.0569 1810.5132 1824.9695 1853.8817 1865.426 1894.3384 1923.2509 1952.1631 1978.1635 1989.7079 2015.7083 2028.3073 2062.9915 2097.6755 2132.3596 2161.2715"
     sodipodi:role="line"
     id="tspan30"><tspan
   style="font-style:italic"
   id="tspan3207">Loktanella vestfoldensis</tspan> SKA53</tspan></text>


<path
   d="m 853,-211 0,-70 608,0"
   style="fill:none;stroke:#000000;stroke-width:4;stroke-linecap:square;stroke-linejoin:miter;stroke-miterlimit:10;stroke-opacity:1;stroke-dasharray:none"
   id="path32"
   inkscape:connector-curvature="0" /><path
   d="m 724,-315 0,106 129,0"
   style="fill:none;stroke:#000000;stroke-width:4;stroke-linecap:square;stroke-linejoin:miter;stroke-miterlimit:10;stroke-opacity:1;stroke-dasharray:none"
   id="path34"
   inkscape:connector-curvature="0" /><text
   transform="matrix(1,0,0,-1,1657,-392)"
   id="text36"><tspan
     style="font-size:52px;font-variant:normal;font-weight:normal;writing-mode:lr-tb;fill:#ff0000;fill-opacity:1;fill-rule:nonzero;stroke:none;font-family:Arial;-inkscape-font-specification:Arial"
     x="0 31.771999 60.683998 95.367996 124.28 158.964 187.87601 222.56 251.472 280.384 315.06799 349.75201 393.06799 430.612 465.29599 479.75201 508.664 537.57599 566.48798 595.40002 610.85602"
     y="0"
     sodipodi:role="line"
     id="tspan38">F0B1V0Y01AYMNA.gene 1(2)*</tspan></text>


<path
   d="m 1474,-423 0,46 165,0"
   style="fill:none;stroke:#000000;stroke-width:4;stroke-linecap:square;stroke-linejoin:miter;stroke-miterlimit:10;stroke-opacity:1;stroke-dasharray:none"
   id="path40"
   inkscape:connector-curvature="0" /><text
   transform="matrix(1,0,0,-1,1492,-488)"
   id="text42"><tspan
     style="font-size:52px;font-variant:normal;font-weight:normal;writing-mode:lr-tb;fill:#ff0000;fill-opacity:1;fill-rule:nonzero;stroke:none;font-family:Arial;-inkscape-font-specification:Arial"
     x="0 31.771999 60.683998 95.367996 124.28 158.964 187.87601 222.56 251.472 280.384 315.06799 343.98001 384.436 413.34799 442.26001 456.716 485.62799 514.53998 543.45203 572.36401 582.82001"
     y="0"
     sodipodi:role="line"
     id="tspan44">F0B1V0Y01B6Q32.gene 1 (5)*</tspan></text>


<path
   d="m 1474,-427 0,-46 0,0"
   style="fill:none;stroke:#000000;stroke-width:4;stroke-linecap:square;stroke-linejoin:miter;stroke-miterlimit:10;stroke-opacity:1;stroke-dasharray:none"
   id="path46"
   inkscape:connector-curvature="0" /><path
   d="m 724,-319 0,-106 750,0"
   style="fill:none;stroke:#000000;stroke-width:4;stroke-linecap:square;stroke-linejoin:miter;stroke-miterlimit:10;stroke-opacity:1;stroke-dasharray:none"
   id="path48"
   inkscape:connector-curvature="0" /><path
   d="m 588,-465 0,148 136,0"
   style="fill:none;stroke:#000000;stroke-width:4;stroke-linecap:square;stroke-linejoin:miter;stroke-miterlimit:10;stroke-opacity:1;stroke-dasharray:none"
   id="path50"
   inkscape:connector-curvature="0" /><text
   transform="scale(1,-1)"
   id="text52"
   x="-418.56277"
   y="584"
   style="font-size:12px"><tspan
     style="font-size:52px;font-variant:normal;font-weight:normal;writing-mode:lr-tb;fill:#000000;fill-opacity:1;fill-rule:nonzero;stroke:none;font-family:Arial;-inkscape-font-specification:Arial"
     x="1119.3462 1148.2587 1177.171 1206.0835 1223.3997 1252.3121 1281.2245 1307.2249 1318.7692 1347.6814 1358.8521 1387.7643 1399.3083 1428.2209 1454.0653 1482.9778 1511.89 1540.8026 1558.1188 1569.6628 1581.2069 1592.3776 1629.922 1661.6947 1690.6069 1707.9231 1736.8356"
     sodipodi:role="line"
     id="tspan54"><tspan
   style="font-style:italic"
   id="tspan3209">Labrenzia alexandrii</tspan> DFL-11</tspan></text>


<path
   d="m 860,-615 0,46 256,0"
   style="fill:none;stroke:#000000;stroke-width:4;stroke-linecap:square;stroke-linejoin:miter;stroke-miterlimit:10;stroke-opacity:1;stroke-dasharray:none"
   id="path56"
   inkscape:connector-curvature="0" /><text
   transform="scale(1,-1)"
   id="text58"
   x="-350.81366"
   y="680"
   style="font-size:12px"><tspan
     style="font-size:52px;font-variant:normal;font-weight:normal;writing-mode:lr-tb;fill:#000000;fill-opacity:1;fill-rule:nonzero;stroke:none;font-family:Arial;-inkscape-font-specification:Arial"
     x="1206.5186 1241.2031 1255.6592 1284.5717 1313.4839 1342.3965 1353.9406 1382.853 1394.4343 1423.3466 1452.259 1481.1714 1498.4878 1527.4 1556.3125 1585.2249 1599.6812 1628.5936 1640.1746 1654.6309 1689.3154 1732.632 1744.2131 1773.1257 1802.038 1830.9504 1859.8628"
     sodipodi:role="line"
     id="tspan60"><tspan
   style="font-style:italic"
   id="tspan3211">Stappia aggregata</tspan> IAM 12614</tspan></text>


<path
   d="m 860,-619 0,-46 341,0"
   style="fill:none;stroke:#000000;stroke-width:4;stroke-linecap:square;stroke-linejoin:miter;stroke-miterlimit:10;stroke-opacity:1;stroke-dasharray:none"
   id="path62"
   inkscape:connector-curvature="0" /><path
   d="m 588,-469 0,-148 272,0"
   style="fill:none;stroke:#000000;stroke-width:4;stroke-linecap:square;stroke-linejoin:miter;stroke-miterlimit:10;stroke-opacity:1;stroke-dasharray:none"
   id="path64"
   inkscape:connector-curvature="0" /><path
   d="m 82,-690 0,223 506,0"
   style="fill:none;stroke:#000000;stroke-width:4;stroke-linecap:square;stroke-linejoin:miter;stroke-miterlimit:10;stroke-opacity:1;stroke-dasharray:none"
   id="path66"
   inkscape:connector-curvature="0" /><text
   transform="scale(1,-1)"
   id="text68"
   x="-61.687656"
   y="776"
   style="font-size:12px"><tspan
     style="font-size:52px;font-variant:normal;font-weight:normal;writing-mode:lr-tb;fill:#000000;fill-opacity:1;fill-rule:nonzero;stroke:none;font-family:Arial;-inkscape-font-specification:Arial"
     x="1453.2543 1485.0266 1513.939 1525.483 1551.5354 1563.0797 1606.4482 1635.3606 1652.677 1664.2211 1693.1335 1722.0459 1730.9305 1759.843 1788.7552 1800.2997 1829.2119 1858.1244 1869.6686 1878.5532 1916.0977 1947.8704 1985.4148 2022.9594 2051.8718 2080.7837 2109.6958"
     sodipodi:role="line"
     id="tspan70"><tspan
   style="font-style:italic"
   id="tspan3213">Fulvimarina pelagi</tspan> HTCC2506</tspan></text>


<path
   d="m 599,-807 0,46 848,0"
   style="fill:none;stroke:#000000;stroke-width:4;stroke-linecap:square;stroke-linejoin:miter;stroke-miterlimit:10;stroke-opacity:1;stroke-dasharray:none"
   id="path72"
   inkscape:connector-curvature="0" /><text
   transform="matrix(1,0,0,-1,1128,-872)"
   id="text74"><tspan
     style="font-size:52px;font-variant:normal;font-weight:normal;writing-mode:lr-tb;fill:#000000;fill-opacity:1;fill-rule:nonzero;stroke:none;font-family:Arial;-inkscape-font-specification:Arial"
     x="0"
     sodipodi:role="line"
     id="tspan76"
     y="0"><tspan
   style="font-style:italic"
   id="tspan3215">Maritimibacter alkaliphilus</tspan> HTCC2654</tspan></text>


<path
   d="m 599,-811 0,-46 511,0"
   style="fill:none;stroke:#000000;stroke-width:4;stroke-linecap:square;stroke-linejoin:miter;stroke-miterlimit:10;stroke-opacity:1;stroke-dasharray:none"
   id="path78"
   inkscape:connector-curvature="0" /><path
   d="m 379,-915 0,106 220,0"
   style="fill:none;stroke:#000000;stroke-width:4;stroke-linecap:square;stroke-linejoin:miter;stroke-miterlimit:10;stroke-opacity:1;stroke-dasharray:none"
   id="path80"
   inkscape:connector-curvature="0" /><text
   transform="scale(1,-1)"
   id="text82"
   x="-325.80795"
   y="968"
   style="font-size:12px"><tspan
     style="font-size:52px;font-variant:normal;font-weight:bold;writing-mode:lr-tb;fill:#000000;fill-opacity:1;fill-rule:nonzero;stroke:none;font-family:Arial;-inkscape-font-specification:Arial"
     x="1098.6461 1136.1907 1147.735 1176.6472 1205.5598 1222.876 1251.7885 1277.7888 1306.7012 1335.6136 1364.5259 1393.4385 1419.4388 1433.895 1462.8074 1480.1235 1491.0084 1517.0088 1545.921 1557.4652 1586.3777 1615.2899 1644.2025 1655.0872 1692.6316 1724.4043 1753.3165 1764.2015 1793.1138"
     sodipodi:role="line"
     id="tspan84"><tspan
   style="font-style:italic;font-weight:bold"
   id="tspan3217">Dinoroseobacter shibae</tspan> DFL 12</tspan></text>


<path
   d="m 514,-1023 0,70 574,0"
   style="fill:none;stroke:#000000;stroke-width:4;stroke-linecap:square;stroke-linejoin:miter;stroke-miterlimit:10;stroke-opacity:1;stroke-dasharray:none"
   id="path86"
   inkscape:connector-curvature="0" /><text
   transform="scale(1,-1)"
   id="text88"
   x="-471.06107"
   y="1064"
   style="font-size:12px"><tspan
     style="font-size:52px;font-variant:normal;font-weight:normal;writing-mode:lr-tb;fill:#000000;fill-opacity:1;fill-rule:nonzero;stroke:none;font-family:Arial;-inkscape-font-specification:Arial"
     x="1038.7002 1079.1569 1105.1572 1134.0698 1162.9821 1191.8945 1203.4387 1229.4391 1258.3513 1269.8956 1298.808 1310.1213 1339.0336 1367.9462 1382.4023 1408.4027 1437.3151 1466.2275 1492.2279 1503.772 1529.7723 1541.0858 1578.6302 1610.4027 1647.9474 1685.4918 1714.4042 1743.3167 1772.229"
     sodipodi:role="line"
     id="tspan90"><tspan
   style="font-style:italic"
   id="tspan3219">Oceanicola batsensis</tspan> HTCC2597</tspan></text>


<path
   d="m 557,-1095 0,46 472,0"
   style="fill:none;stroke:#000000;stroke-width:4;stroke-linecap:square;stroke-linejoin:miter;stroke-miterlimit:10;stroke-opacity:1;stroke-dasharray:none"
   id="path92"
   inkscape:connector-curvature="0" /><text
   transform="scale(1,-1)"
   id="text94"
   x="-488.93115"
   y="1160"
   style="font-size:12px"><tspan
     style="font-size:52px;font-variant:normal;font-weight:bold;writing-mode:lr-tb;fill:#000000;fill-opacity:1;fill-rule:nonzero;stroke:none;font-family:Arial;-inkscape-font-specification:Arial"
     x="905.55969 943.10425 972.01642 1000.929 1029.8412 1058.7538 1087.6663 1116.5786 1142.579 1157.0352 1185.9475 1203.2639 1213.8866 1239.887 1268.7994 1297.7118 1326.6243 1355.5365 1372.8529 1401.7653 1413.3096 1442.2218 1471.1344 1497.1348 1507.7574 1536.6699 1551.126 1580.0385 1594.4948"
     sodipodi:role="line"
     id="tspan96"><tspan
   style="font-style:italic;font-weight:bold"
   id="tspan3221">Rhodobacter sphaeroides</tspan> 2.4.1</tspan></text>


<path
   d="m 557,-1099 0,-46 342,0"
   style="fill:none;stroke:#000000;stroke-width:4;stroke-linecap:square;stroke-linejoin:miter;stroke-miterlimit:10;stroke-opacity:1;stroke-dasharray:none"
   id="path98"
   inkscape:connector-curvature="0" /><path
   d="m 514,-1027 0,-70 43,0"
   style="fill:none;stroke:#000000;stroke-width:4;stroke-linecap:square;stroke-linejoin:miter;stroke-miterlimit:10;stroke-opacity:1;stroke-dasharray:none"
   id="path100"
   inkscape:connector-curvature="0" /><path
   d="m 379,-919 0,-106 135,0"
   style="fill:none;stroke:#000000;stroke-width:4;stroke-linecap:square;stroke-linejoin:miter;stroke-miterlimit:10;stroke-opacity:1;stroke-dasharray:none"
   id="path102"
   inkscape:connector-curvature="0" /><path
   d="m 82,-694 0,-223 297,0"
   style="fill:none;stroke:#000000;stroke-width:4;stroke-linecap:square;stroke-linejoin:miter;stroke-miterlimit:10;stroke-opacity:1;stroke-dasharray:none"
   id="path104"
   inkscape:connector-curvature="0" /><path
   d="m 40,-1039 0,347 42,0"
   style="fill:none;stroke:#000000;stroke-width:4;stroke-linecap:square;stroke-linejoin:miter;stroke-miterlimit:10;stroke-opacity:1;stroke-dasharray:none"
   id="path106"
   inkscape:connector-curvature="0" /><text
   transform="scale(1,-1)"
   id="text108"
   x="-191.05911"
   y="1256"
   style="font-size:12px"><tspan
     style="font-size:52px;font-variant:normal;font-weight:normal;writing-mode:lr-tb;fill:#000000;fill-opacity:1;fill-rule:nonzero;stroke:none;font-family:Arial;-inkscape-font-specification:Arial"
     x="1247.8568 1291.1733 1320.0858 1337.402 1348.946 1377.8586 1406.7709 1435.6835 1464.5957 1490.5961 1505.0524 1533.9648 1551.281 1562.3085 1605.6772 1634.5896 1663.5021 1692.4143 1721.3269 1750.2391 1779.1516 1804.996 1830.9963 1859.9089 1888.8212 1917.7336 1943.734 1954.7616 1998.0784 2026.9906 2041.4469 2070.3589 2087.675"
     sodipodi:role="line"
     id="tspan110"><tspan
   style="font-style:italic"
   id="tspan3223">Marinobacter manganoxydans</tspan> MnI7-9</tspan></text>


<path
   d="m 938,-1389 0,148 302,0"
   style="fill:none;stroke:#000000;stroke-width:4;stroke-linecap:square;stroke-linejoin:miter;stroke-miterlimit:10;stroke-opacity:1;stroke-dasharray:none"
   id="path112"
   inkscape:connector-curvature="0" /><text
   transform="matrix(1,0,0,-1,1404,-1352)"
   id="text114"><tspan
     style="font-size:52px;font-variant:normal;font-weight:normal;writing-mode:lr-tb;fill:#ff0000;fill-opacity:1;fill-rule:nonzero;stroke:none;font-family:Arial;-inkscape-font-specification:Arial"
     x="0 31.683399 60.506802 100.8742 138.32961 164.241 193.06441 227.65981 256.48318 285.30661 316.98999 345.81339 380.40881 409.23221 438.0556 452.423 481.2464 510.06979 538.89319 567.71661 574.85602"
     y="0"
     sodipodi:role="line"
     id="tspan116">F0QNJ4P02F1S61.gene 1 (3)*</tspan></text>


<path
   d="m 1386,-1383 0,46 0,0"
   style="fill:none;stroke:#000000;stroke-width:4;stroke-linecap:square;stroke-linejoin:miter;stroke-miterlimit:10;stroke-opacity:1;stroke-dasharray:none"
   id="path118"
   inkscape:connector-curvature="0" /><text
   transform="matrix(1,0,0,-1,1404,-1448)"
   id="text120"><tspan
     style="font-size:52px;font-variant:normal;font-weight:normal;writing-mode:lr-tb;fill:#ff0000;fill-opacity:1;fill-rule:nonzero;stroke:none;font-family:Arial;-inkscape-font-specification:Arial"
     x="0 31.583401 60.306801 89.030197 126.3856 157.96899 186.6924 224.04781 252.77119 281.4946 315.98999 350.48541 384.9808 422.33621 462.60361 476.871 505.59439 534.31781 563.0412 591.76459 598.80402"
     y="0"
     sodipodi:role="line"
     id="tspan122">F03RT9C01BAVRQ.gene 1 (6)*</tspan></text>


<path
   d="m 1386,-1387 0,-46 0,0"
   style="fill:none;stroke:#000000;stroke-width:4;stroke-linecap:square;stroke-linejoin:miter;stroke-miterlimit:10;stroke-opacity:1;stroke-dasharray:none"
   id="path124"
   inkscape:connector-curvature="0" /><path
   d="m 1129,-1539 0,154 257,0"
   style="fill:none;stroke:#000000;stroke-width:4;stroke-linecap:square;stroke-linejoin:miter;stroke-miterlimit:10;stroke-opacity:1;stroke-dasharray:none"
   id="path126"
   inkscape:connector-curvature="0" /><text
   transform="matrix(1,0,0,-1,1658,-1544)"
   id="text128"><tspan
     style="font-size:52px;font-variant:normal;font-weight:normal;writing-mode:lr-tb;fill:#ff0000;fill-opacity:1;fill-rule:nonzero;stroke:none;font-family:Arial;-inkscape-font-specification:Arial"
     x="0 31.2334 59.6068 99.5242 136.5296 161.991 190.3644 224.5098 252.88319 281.25659 321.17401 346.63541 380.72879 409.1022 449.01959 462.93701 491.31039 519.68378 548.05719 576.4306 583.12"
     y="0"
     sodipodi:role="line"
     id="tspan130">F0QNJ4P02GJX5G.gene 1 (1)*</tspan></text>


<path
   d="m 1205,-1695 0,166 435,0"
   style="fill:none;stroke:#000000;stroke-width:4;stroke-linecap:square;stroke-linejoin:miter;stroke-miterlimit:10;stroke-opacity:1;stroke-dasharray:none"
   id="path132"
   inkscape:connector-curvature="0" /><text
   transform="matrix(1,0,0,-1,1264,-1640)"
   id="text134"><tspan
     style="font-size:52px;font-variant:normal;font-weight:normal;writing-mode:lr-tb;fill:#ff0000;fill-opacity:1;fill-rule:nonzero;stroke:none;font-family:Arial;-inkscape-font-specification:Arial"
     x="0 31.583401 60.306801 97.662201 135.01759 163.741 204.00841 232.7318 261.4552 290.17859 327.534 362.02939 390.75281 422.33621 451.0596 465.327 494.05042 522.7738 551.49719 580.22058 587.26001"
     y="0"
     sodipodi:role="line"
     id="tspan136">F0DU8Q401CA3F8.gene 2 (1)*</tspan></text>


<path
   d="m 1246,-1863 0,238 0,0"
   style="fill:none;stroke:#000000;stroke-width:4;stroke-linecap:square;stroke-linejoin:miter;stroke-miterlimit:10;stroke-opacity:1;stroke-dasharray:none"
   id="path138"
   inkscape:connector-curvature="0" /><text
   transform="matrix(1,0,0,-1,1264,-1736)"
   id="text140"><tspan
     style="font-size:52px;font-variant:normal;font-weight:normal;writing-mode:lr-tb;fill:#ff0000;fill-opacity:1;fill-rule:nonzero;stroke:none;font-family:Arial;-inkscape-font-specification:Arial"
     x="0 31.7334 60.6068 95.252197 124.1256 158.771 187.64439 222.28979 251.16319 280.03659 314.68201 340.6434 372.3768 409.8822 441.6156 456.03299 484.9064 513.77979 542.6532 571.52661 578.716"
     y="0"
     sodipodi:role="line"
     id="tspan142">F0B1V0Y01AJFCZ.gene 1 (7)*</tspan></text>


<path
   d="m 1246,-1911 0,190 0,0"
   style="fill:none;stroke:#000000;stroke-width:4;stroke-linecap:square;stroke-linejoin:miter;stroke-miterlimit:10;stroke-opacity:1;stroke-dasharray:none"
   id="path144"
   inkscape:connector-curvature="0" /><text
   transform="matrix(1,0,0,-1,1264,-1832)"
   id="text146"><tspan
     style="font-size:52px;font-variant:normal;font-weight:normal;writing-mode:lr-tb;fill:#ff0000;fill-opacity:1;fill-rule:nonzero;stroke:none;font-family:Arial;-inkscape-font-specification:Arial"
     x="0 30.9834 61.966801 90.090202 118.2136 143.425 157.09241 188.07581 216.1992 244.3226 281.078 317.8334 354.58881 382.71219 410.8356 424.50299 452.6264 480.74979 508.8732 536.99658 543.43597"
     y="0"
     sodipodi:role="line"
     id="tspan148">FZ99JIT02HUU88.gene 1 (15)*</tspan></text>


<path
   d="m 1246,-1959 0,142 0,0"
   style="fill:none;stroke:#000000;stroke-width:4;stroke-linecap:square;stroke-linejoin:miter;stroke-miterlimit:10;stroke-opacity:1;stroke-dasharray:none"
   id="path150"
   inkscape:connector-curvature="0" /><text
   transform="matrix(1,0,0,-1,1264,-1928)"
   id="text152"><tspan
     style="font-size:52px;font-variant:normal;font-weight:normal;writing-mode:lr-tb;fill:#ff0000;fill-opacity:1;fill-rule:nonzero;stroke:none;font-family:Arial;-inkscape-font-specification:Arial"
     x="0 31.0334 62.066799 90.240196 118.4136 143.675 157.3924 188.4258 216.5992 244.7726 278.71799 306.89139 337.9248 366.09821 394.27161 407.98901 436.16241 464.33578 492.50919 520.68262 527.172"
     y="0"
     sodipodi:role="line"
     id="tspan154">FZ99JIT01B4T23.gene 1 (1)*</tspan></text>


<path
   d="m 1246,-2007 0,94 0,0"
   style="fill:none;stroke:#000000;stroke-width:4;stroke-linecap:square;stroke-linejoin:miter;stroke-miterlimit:10;stroke-opacity:1;stroke-dasharray:none"
   id="path156"
   inkscape:connector-curvature="0" /><text
   transform="matrix(1,0,0,-1,1264,-2024)"
   id="text158"><tspan
     style="font-size:52px;font-variant:normal;font-weight:normal;writing-mode:lr-tb;fill:#ff0000;fill-opacity:1;fill-rule:nonzero;stroke:none;font-family:Arial;-inkscape-font-specification:Arial"
     x="0 31.083401 62.166801 90.390198 118.6136 143.925 157.6924 188.7758 216.99921 245.2226 258.98999 292.98541 321.2088 349.43219 377.65561 391.423 419.64639 447.86981 476.0932 504.31659 510.85599"
     y="0"
     sodipodi:role="line"
     id="tspan160">FZ99JIT02IV148.gene 1 (3)*</tspan></text>


<path
   d="m 1246,-2055 0,46 0,0"
   style="fill:none;stroke:#000000;stroke-width:4;stroke-linecap:square;stroke-linejoin:miter;stroke-miterlimit:10;stroke-opacity:1;stroke-dasharray:none"
   id="path162"
   inkscape:connector-curvature="0" /><text
   transform="matrix(1,0,0,-1,1298,-2120)"
   id="text164"><tspan
     style="font-size:52px;font-variant:normal;font-weight:normal;writing-mode:lr-tb;fill:#ff0000;fill-opacity:1;fill-rule:nonzero;stroke:none;font-family:Arial;-inkscape-font-specification:Arial"
     x="0 31.771999 60.683998 95.367996 124.28 158.964 187.87601 222.56 251.472 280.384 315.06799 349.75201 390.20801 424.892 468.20801 482.664 511.57599 540.48798 569.40002 598.31201 614.76801"
     y="0"
     sodipodi:role="line"
     id="tspan166">F0B1V0Y01ASQYM.gene 1 (7)*</tspan></text>


<path
   d="m 1246,-2059 0,-46 34,0"
   style="fill:none;stroke:#000000;stroke-width:4;stroke-linecap:square;stroke-linejoin:miter;stroke-miterlimit:10;stroke-opacity:1;stroke-dasharray:none"
   id="path168"
   inkscape:connector-curvature="0" /><path
   d="m 1246,-1867 0,-238"
   style="fill:none;stroke:#000000;stroke-width:4;stroke-linecap:square;stroke-linejoin:miter;stroke-miterlimit:10;stroke-opacity:1;stroke-dasharray:none"
   id="path170"
   inkscape:connector-curvature="0" /><path
   d="m 1205,-1699 0,-166 41,0"
   style="fill:none;stroke:#000000;stroke-width:4;stroke-linecap:square;stroke-linejoin:miter;stroke-miterlimit:10;stroke-opacity:1;stroke-dasharray:none"
   id="path172"
   inkscape:connector-curvature="0" /><path
   d="m 1129,-1543 0,-154 76,0"
   style="fill:none;stroke:#000000;stroke-width:4;stroke-linecap:square;stroke-linejoin:miter;stroke-miterlimit:10;stroke-opacity:1;stroke-dasharray:none"
   id="path174"
   inkscape:connector-curvature="0" /><path
   d="m 938,-1393 0,-148 191,0"
   style="fill:none;stroke:#000000;stroke-width:4;stroke-linecap:square;stroke-linejoin:miter;stroke-miterlimit:10;stroke-opacity:1;stroke-dasharray:none"
   id="path176"
   inkscape:connector-curvature="0" /><path
   d="m 40,-1043 0,-348 898,0"
   style="fill:none;stroke:#000000;stroke-width:4;stroke-linecap:square;stroke-linejoin:miter;stroke-miterlimit:10;stroke-opacity:1;stroke-dasharray:none"
   id="path178"
   inkscape:connector-curvature="0" /><text
   transform="matrix(1,0,0,-1,1382,-483)"
   id="text180"><tspan
     style="font-size:44px;font-variant:normal;font-weight:normal;writing-mode:lr-tb;fill:#000000;fill-opacity:1;fill-rule:nonzero;stroke:none;font-family:Arial;-inkscape-font-specification:Arial"
     x="0 23.964001 47.928001"
     y="0"
     sodipodi:role="line"
     id="tspan182">100</tspan><tspan
     style="font-size:44px;font-variant:normal;font-weight:normal;writing-mode:lr-tb;fill:#000000;fill-opacity:1;fill-rule:nonzero;stroke:none;font-family:Arial;-inkscape-font-specification:Arial"
     x="-178 -154.536"
     y="-367"
     sodipodi:role="line"
     id="tspan184">99</tspan><tspan
     style="font-size:44px;font-variant:normal;font-weight:normal;writing-mode:lr-tb;fill:#000000;fill-opacity:1;fill-rule:nonzero;stroke:none;font-family:Arial;-inkscape-font-specification:Arial"
     x="-590 -566.53601"
     y="192"
     sodipodi:role="line"
     id="tspan186">94</tspan><tspan
     style="font-size:44px;font-variant:normal;font-weight:normal;writing-mode:lr-tb;fill:#000000;fill-opacity:1;fill-rule:nonzero;stroke:none;font-family:Arial;-inkscape-font-specification:Arial"
     x="-597 -573.53601"
     y="-295"
     sodipodi:role="line"
     id="tspan188">70</tspan><tspan
     style="font-size:44px;font-variant:normal;font-weight:normal;writing-mode:lr-tb;fill:#000000;fill-opacity:1;fill-rule:nonzero;stroke:none;font-family:Arial;-inkscape-font-specification:Arial"
     x="-726 -702.53601"
     y="-187"
     sodipodi:role="line"
     id="tspan190">74</tspan><tspan
     style="font-size:44px;font-variant:normal;font-weight:normal;writing-mode:lr-tb;fill:#000000;fill-opacity:1;fill-rule:nonzero;stroke:none;font-family:Arial;-inkscape-font-specification:Arial"
     x="-862 -838.53601"
     y="-37"
     sodipodi:role="line"
     id="tspan192">99</tspan><tspan
     style="font-size:44px;font-variant:normal;font-weight:normal;writing-mode:lr-tb;fill:#000000;fill-opacity:1;fill-rule:nonzero;stroke:none;font-family:Arial;-inkscape-font-specification:Arial"
     x="-851 -827.53601"
     y="305"
     sodipodi:role="line"
     id="tspan194">82</tspan><tspan
     style="font-size:44px;font-variant:normal;font-weight:normal;writing-mode:lr-tb;fill:#000000;fill-opacity:1;fill-rule:nonzero;stroke:none;font-family:Arial;-inkscape-font-specification:Arial"
     x="-893 -869.53601"
     y="672"
     sodipodi:role="line"
     id="tspan196">55</tspan><tspan
     style="font-size:44px;font-variant:normal;font-weight:normal;writing-mode:lr-tb;fill:#000000;fill-opacity:1;fill-rule:nonzero;stroke:none;font-family:Arial;-inkscape-font-specification:Arial"
     x="-936 -912.53601"
     y="600"
     sodipodi:role="line"
     id="tspan198">72</tspan><tspan
     style="font-size:44px;font-variant:normal;font-weight:normal;writing-mode:lr-tb;fill:#000000;fill-opacity:1;fill-rule:nonzero;stroke:none;font-family:Arial;-inkscape-font-specification:Arial"
     x="-1071 -1047.536"
     y="492"
     sodipodi:role="line"
     id="tspan200">93</tspan><tspan
     style="font-size:44px;font-variant:normal;font-weight:normal;writing-mode:lr-tb;fill:#000000;fill-opacity:1;fill-rule:nonzero;stroke:none;font-family:Arial;-inkscape-font-specification:Arial"
     x="-88 -64.036003 -40.071999"
     y="881"
     sodipodi:role="line"
     id="tspan202">100</tspan><tspan
     style="font-size:44px;font-variant:normal;font-weight:normal;writing-mode:lr-tb;fill:#000000;fill-opacity:1;fill-rule:nonzero;stroke:none;font-family:Arial;-inkscape-font-specification:Arial"
     x="-536 -512.03601 -488.07199"
     y="966"
     sodipodi:role="line"
     id="tspan204">100</tspan><tspan
     style="font-size:44px;font-variant:normal;font-weight:normal;writing-mode:lr-tb;fill:#000000;fill-opacity:1;fill-rule:nonzero;stroke:none;font-family:Arial;-inkscape-font-specification:Arial"
     x="-321 -297.53601"
     y="1116"
     sodipodi:role="line"
     id="tspan206">90</tspan><tspan
     style="font-size:44px;font-variant:normal;font-weight:normal;writing-mode:lr-tb;fill:#000000;fill-opacity:1;fill-rule:nonzero;stroke:none;font-family:Arial;-inkscape-font-specification:Arial"
     x="-245 -221.536"
     y="1272"
     sodipodi:role="line"
     id="tspan208">61</tspan><tspan
     style="font-size:44px;font-variant:normal;font-weight:normal;writing-mode:lr-tb;fill:#000000;fill-opacity:1;fill-rule:nonzero;stroke:none;font-family:Arial;-inkscape-font-specification:Arial"
     x="-204 -180.536"
     y="1440"
     sodipodi:role="line"
     id="tspan210">94</tspan></text>


<path
   d="m 240,-2240 279,0"
   style="fill:none;stroke:#000000;stroke-width:4;stroke-linecap:square;stroke-linejoin:round;stroke-miterlimit:10;stroke-opacity:1;stroke-dasharray:none"
   id="path212"
   inkscape:connector-curvature="0" /><path
   d="m 240,-2224 0,-32"
   style="fill:none;stroke:#000000;stroke-width:4;stroke-linecap:square;stroke-linejoin:round;stroke-miterlimit:10;stroke-opacity:1;stroke-dasharray:none"
   id="path214"
   inkscape:connector-curvature="0" /><path
   d="m 519,-2224 0,-32"
   style="fill:none;stroke:#000000;stroke-width:4;stroke-linecap:square;stroke-linejoin:round;stroke-miterlimit:10;stroke-opacity:1;stroke-dasharray:none"
   id="path216"
   inkscape:connector-curvature="0" /><text
   transform="matrix(1,0,0,-1,347,-2300)"
   id="text218"><tspan
     style="font-size:44px;font-variant:normal;font-weight:normal;writing-mode:lr-tb;fill:#000000;fill-opacity:1;fill-rule:nonzero;stroke:none;font-family:Arial;-inkscape-font-specification:Arial"
     x="0 25.964001 39.695999"
     y="0"
     sodipodi:role="line"
     id="tspan220">0.1</tspan></text>


<g
   id="g222" /></g><path
       style="fill:none;stroke:#000000;stroke-width:0.80000001px;stroke-linecap:butt;stroke-linejoin:miter;stroke-opacity:1"
       d="m 485.6131,628.47652 0,-79.19596"
       id="path3875"
       inkscape:connector-curvature="0" /><path
       style="fill:none;stroke:#000000;stroke-width:0.80000001px;stroke-linecap:butt;stroke-linejoin:miter;stroke-opacity:1"
       d="m 484.14632,413.66307 0,-168.57426"
       id="path3875-0"
       inkscape:connector-curvature="0"
       sodipodi:nodetypes="cc" /><text
       xml:space="preserve"
       style="font-size:11.19999981px;font-style:normal;font-variant:normal;font-weight:bold;font-stretch:normal;text-align:center;line-height:125%;letter-spacing:0px;word-spacing:0px;text-anchor:middle;fill:#000000;fill-opacity:1;stroke:none;font-family:Arial;-inkscape-font-specification:Sans"
       x="514.44928"
       y="-585.30707"
       id="text3895"
       sodipodi:linespacing="125%"
       transform="scale(1,-1)"><tspan
         sodipodi:role="line"
         id="tspan3897"
         x="514.44928"
         y="-585.30707">SUL-dddL</tspan></text>
<text
       xml:space="preserve"
       style="font-size:11.19999981px;font-style:normal;font-variant:normal;font-weight:bold;font-stretch:normal;text-align:center;line-height:125%;letter-spacing:0px;word-spacing:0px;text-anchor:middle;fill:#000000;fill-opacity:1;stroke:none;font-family:Arial;-inkscape-font-specification:Sans"
       x="514.62994"
       y="-331.70352"
       id="text3895-1"
       sodipodi:linespacing="125%"
       transform="scale(1,-1)"><tspan
         sodipodi:role="line"
         id="tspan3897-4"
         x="514.62994"
         y="-331.70352">MAR-dddL</tspan></text>
</g></svg>